# vertices
v 1.000000 0.000000 0.000000
v 0.980785 0.195090 0.000000
v 0.923880 0.382683 0.000000
v 0.831470 0.555570 0.000000
v 0.707107 0.707107 0.000000
v 0.555570 0.831470 0.000000
v 0.382683 0.923880 0.000000
v 0.195090 0.980785 0.000000
v 0.000000 1.000000 0.000000
v -0.195090 0.980785 0.000000
v -0.382683 0.923880 0.000000
v -0.555570 0.831470 0.000000
v -0.707107 0.707107 0.000000
v -0.831470 0.555570 0.000000
v -0.923880 0.382683 0.000000
v -0.980785 0.195090 0.000000
v -1.000000 0.000000 0.000000
v -0.980785 -0.195090 0.000000
v -0.923880 -0.382683 0.000000
v -0.831470 -0.555570 0.000000
v -0.707107 -0.707107 0.000000
v -0.555570 -0.831470 0.000000
v -0.382683 -0.923880 0.000000
v -0.195090 -0.980785 0.000000
v -0.000000 -1.000000 0.000000
v 0.195090 -0.980785 0.000000
v 0.382683 -0.923880 0.000000
v 0.555570 -0.831470 0.000000
v 0.707107 -0.707107 0.000000
v 0.831470 -0.555570 0.000000
v 0.923880 -0.382683 0.000000
v 0.980785 -0.195090 0.000000
v 0.796148 0.000000 0.000000
v 0.669762 0.430430 0.000000
v 0.330732 0.724201 0.000000
v -0.113304 0.788044 0.000000
v -0.521366 0.601688 0.000000
v -0.763898 0.224301 0.000000
v -0.763898 -0.224301 0.000000
v -0.521366 -0.601688 0.000000
v -0.113304 -0.788044 0.000000
v 0.330732 -0.724201 0.000000
v 0.669762 -0.430430 0.000000
# vertex-normals
vn 0.000000 0.000000 1.000000
# faces
usemtl a
f 38//1 16//1 17//1
f 39//1 38//1 17//1
f 42//1 29//1 43//1
f 23//1 41//1 40//1
f 29//1 30//1 43//1
f 30//1 31//1 43//1
f 33//1 32//1 1//1
f 32//1 33//1 43//1
f 31//1 32//1 43//1
f 33//1 2//1 34//1
f 2//1 33//1 1//1
f 36//1 35//1 8//1
f 14//1 38//1 37//1
f 18//1 39//1 17//1
f 18//1 19//1 39//1
f 39//1 20//1 40//1
f 19//1 20//1 39//1
f 20//1 21//1 40//1
f 26//1 42//1 41//1
f 26//1 41//1 25//1
f 26//1 27//1 42//1
f 41//1 24//1 25//1
f 23//1 24//1 41//1
f 21//1 22//1 40//1
f 22//1 23//1 40//1
f 3//1 4//1 34//1
f 2//1 3//1 34//1
f 35//1 7//1 8//1
f 6//1 7//1 35//1
f 4//1 5//1 34//1
f 5//1 35//1 34//1
f 5//1 6//1 35//1
f 38//1 15//1 16//1
f 14//1 15//1 38//1
f 12//1 13//1 37//1
f 13//1 14//1 37//1
f 9//1 36//1 8//1
f 9//1 10//1 36//1
f 10//1 11//1 36//1
f 36//1 11//1 37//1
f 11//1 12//1 37//1
f 42//1 28//1 29//1
f 27//1 28//1 42//1
f 36//1 39//1 40//1
f 41//1 36//1 40//1
f 36//1 33//1 34//1
f 35//1 36//1 34//1
f 36//1 38//1 39//1
f 33//1 36//1 43//1
f 42//1 36//1 41//1
f 38//1 36//1 37//1
f 36//1 42//1 43//1
